<svg version="1.2" xmlns="http://www.w3.org/2000/svg" viewBox="0 0 80 76" width="80" height="76">
	<title>verde_logo2</title>
	<style>
		.s0 { fill: #ffffff } 
		.s1 { fill: #aac037 } 
	</style>
	<path class="s0" d="m16 8.2q-0.1 0-0.1 0 0 0-0.1 0 0-0.1 0-0.1-0.1 0-0.1 0c0 0 0 0 0-0.1h0.1z"/>
	<path fill-rule="evenodd" class="s0" d="m41.1 52.1h-0.1v-0.2l-0.1 0.2 0.1-0.3 0.1 0.3z"/>
	<path fill-rule="evenodd" class="s0" d="m30.1 75l-14.3-39.6 13.9 38.6 0.4 1z"/>
	<path fill-rule="evenodd" class="s0" d="m61.2 49.3l-9.4 25.7 0.4-1 9-24.7z"/>
	<path class="s0" d="m60 48l-9.2 25.5h-19.7l-14-39q0.6-0.7 1.2-1.4 0.6-0.7 1.2-1.5 0.5-0.8 1-1.7 0.4-0.8 0.8-1.7c1.8-4.2 1.7-9-0.5-14.3q-0.4-0.9-0.8-1.7-0.5-0.9-0.9-1.7-0.5-0.9-1-1.7-0.5-0.8-1.1-1.6l-0.5-0.9-0.2-0.2-0.7 0.3-0.3 0.2q-0.9 0.4-1.8 0.9-0.9 0.5-1.8 1-0.8 0.5-1.6 1.1-0.8 0.6-1.6 1.3l-3.4-9.4h17.1l18.6 55.3 0.1-0.3 0.1 0.3 6-17.9q0.9 0.6 1.7 1.2c3.6 2.3 7.3 4.2 10.4 7l0.3 0.3 0.5 0.5z"/>
	<path class="s1" d="m61.1 46.9h-0.1l-0.5-0.6-0.2-0.1-0.1-0.1q-0.9-0.7-1.8-1.5-1-0.7-1.9-1.4-1-0.7-2-1.3-1-0.6-2-1.2-1.5-0.9-2.9-1.8-0.8-0.5-1.6-1.1l-1.7-1.1-0.6 1.9-3.2 9.4-1.4 4.2-0.1-0.2-0.1 0.2-17.3-51.2-0.3-1h-20.3l0.7 2 3.4 9.4 0.3 1 0.4 1 1.7-1.4q0.7-0.6 1.4-1.1 0.8-0.6 1.5-1.1 0.8-0.5 1.6-0.9 0.9-0.5 1.7-0.8h0.1l0.2 0.2q0.5 0.7 0.9 1.5 0.5 0.8 0.9 1.5 0.4 0.8 0.8 1.6 0.4 0.8 0.8 1.6c2 4.9 2.2 9.3 0.5 13.2q-0.3 0.8-0.8 1.6-0.4 0.7-0.9 1.5-0.5 0.7-1.1 1.4-0.5 0.7-1.2 1.3l-0.6 0.7 0.3 0.9 0.1 0.3 14 38.6 0.4 1h21.7l0.4-1 9-24.8 0.2-0.7 0.3-0.9zm-10.2 26.5h-19.7l-14.1-38.9q0.7-0.7 1.3-1.4 0.6-0.8 1.1-1.6 0.6-0.8 1-1.6 0.5-0.8 0.9-1.7c1.8-4.3 1.6-9.1-0.6-14.3q-0.4-0.9-0.8-1.8-0.4-0.8-0.9-1.7-0.4-0.8-1-1.7-0.5-0.8-1-1.6l-0.6-0.8-0.1-0.2-0.7 0.3-0.3 0.2q-1 0.4-1.8 0.8-0.9 0.5-1.8 1.1-0.8 0.5-1.7 1.1-0.8 0.6-1.5 1.2l-3.4-9.3h17.1l18.6 55.3 0.1-0.3 0.1 0.3 6-17.9q0.9 0.6 1.7 1.1c3.5 2.3 7.3 4.3 10.4 7.1l0.2 0.2 0.6 0.6z"/>
	<path class="s1" d="m58.6 0l-3 9.2-0.5 1.3 1.3 0.5q1.5 0.6 2.9 1.4 1.4 0.7 2.7 1.6 1.3 0.8 2.5 1.8 1.2 1 2.3 2.1 0.3 0.3 0.6 0.6 0.3 0.3 0.6 0.6 0.3 0.3 0.6 0.7 0.2 0.3 0.5 0.6l1.7 2.2 0.6-1.6 0.3-1 6.5-18 0.8-2zm11.6 19.6q-0.2-0.4-0.5-0.8-0.3-0.3-0.6-0.7-0.3-0.3-0.6-0.6-0.4-0.4-0.7-0.7-1.2-1.1-2.4-2.1-1.3-1.1-2.7-2-1.4-0.9-2.8-1.6-1.5-0.8-3-1.4l2.7-8.2h17.2z"/>
	<path class="s0" d="m76.8 1.5l-6.5 18q-0.3-0.4-0.5-0.7-0.3-0.4-0.6-0.7-0.3-0.3-0.7-0.7-0.3-0.3-0.6-0.6-1.2-1.2-2.5-2.2-1.3-1-2.6-1.9-1.4-0.9-2.9-1.7-1.4-0.7-2.9-1.3l2.7-8.2z"/>
	<path class="s1" d="m70.8 47.8q-0.2 0.5-0.4 1-0.3 0.6-0.7 1.2-0.4 0.6-0.8 1.2-0.4 0.6-0.9 1.2-0.5 0.5-0.9 1.1c-0.1-3.7-2.1-7.1-4.8-9.8l-0.5-0.5-0.3-0.3c-3.1-2.8-6.8-4.7-10.3-7q-1.4-0.9-2.7-1.9-0.3-0.2-0.6-0.4-0.9-0.7-1.7-1.4-0.7-0.7-1.4-1.5-0.8-0.8-1.4-1.7-0.6-0.9-1.1-1.8c-1.9-3.7-3-11.4 3.1-15.4q0.6 1.6 1.3 3 0.8 1.5 1.6 2.9 0.9 1.5 1.8 2.8 1 1.4 2 2.6 1.5 1.6 3 3.2 1.5 1.5 3.1 2.9 1.5 1.5 3.2 2.8 1.7 1.3 3.4 2.6l1 0.7-1-0.8q-1.7-1.4-3.3-3-1.6-1.5-3.2-3.2-1.5-1.7-2.9-3.4-1.4-1.8-2.6-3.7-1.2-1.7-2.3-3.5-1-1.9-1.9-3.8-0.9-1.9-1.7-3.9-0.7-2-1.3-4l3.1-0.6c0 0-0.2 4 1.5 6.9q0.6 0 1.2 0.1 0.6 0.1 1.1 0.2 0.6 0.1 1.1 0.3 0.6 0.2 1.1 0.4l0.7 0.2q1.4 0.5 2.7 1.1 1.3 0.7 2.5 1.5 1.2 0.8 2.4 1.7 1.1 0.9 2.2 1.9 0.5 0.5 0.9 1 0.5 0.6 1 1.1 0.4 0.6 0.8 1.2 0.4 0.5 0.8 1.2 0.2 0.3 0.4 0.7c4 7.3 4.6 16.7 1.7 22.9z"/>
	<path class="s1" d="m21.1 28.1q-0.5 1-1.1 2-0.5 1-1.2 1.9-0.7 0.9-1.4 1.8-0.8 0.8-1.6 1.6-0.4 0.3-0.7 0.6-1.2 1-2.4 1.9-1.2 0.9-2.4 1.6-1.3 0.8-2.6 1.5-1.4 0.7-2.7 1.3-0.4 0.2-0.8 0.3-0.4 0.2-0.8 0.3-0.4 0.2-0.7 0.3-0.4 0.2-0.8 0.3c-0.3 0.1-6.6-18.2 4.9-30.4q0.3-0.4 0.6-0.7 1-0.9 2-1.7 0.9-0.8 2-1.5 1.1-0.8 2.2-1.4 1.1-0.6 2.3-1.1c0 0.5-0.2 1-0.2 1.5q-0.3 2.3-0.8 4.6-0.4 1.5-0.8 3-0.4 1.6-0.9 3.1-0.5 1.5-1 3-0.6 1.5-1.2 3-0.6 1.5-1.3 3-0.6 1.6-1.4 3.1-0.7 1.5-1.5 2.9-0.8 1.5-1.6 3 1-1.1 2-2.3 0.9-1.2 1.8-2.4 0.8-1.3 1.5-2.6 0.7-1.4 1.2-2.8 0.7-1.7 1.3-3.5 0.6-1.7 1.1-3.5 0.5-1.8 0.9-3.6 0.4-1.8 0.6-3.6 0.4-2.1 0.7-4l0.2-1.8q0.6 0.8 1.2 1.7 0.5 0.8 1 1.7 0.5 0.9 0.9 1.8 0.5 0.9 0.9 1.8c1.7 4.1 2.7 9.2 0.6 14.3z"/>
</svg>