<svg id="Layer_1" data-name="Layer 1" xmlns="http://www.w3.org/2000/svg" viewBox="0 0 1200 1000"><defs><style>.cls-1{fill:#333132;}.cls-2{fill:#676767;}.cls-3{fill:#fff;}.cls-4{fill:#aac037;}</style></defs><path class="cls-1" d="M525,494l-11.55,30.77h-5.84L496,494h5.4l9.12,25.59L519.66,494Z"/><path class="cls-1" d="M551.35,514.4H532.72a6.73,6.73,0,0,0,2.16,4.69,6.83,6.83,0,0,0,4.79,1.78,5.91,5.91,0,0,0,5.75-3.41h5.44a11,11,0,0,1-4,5.51,11.77,11.77,0,0,1-7.19,2.15,12.45,12.45,0,0,1-6.27-1.58,11.19,11.19,0,0,1-4.34-4.42,13.61,13.61,0,0,1-1.57-6.62,13.82,13.82,0,0,1,1.53-6.62,10.76,10.76,0,0,1,4.29-4.4,12.83,12.83,0,0,1,6.36-1.55,12.45,12.45,0,0,1,6.15,1.5,10.68,10.68,0,0,1,4.2,4.23,12.66,12.66,0,0,1,1.51,6.26A15.42,15.42,0,0,1,551.35,514.4Zm-5.09-4.07a5.73,5.73,0,0,0-2-4.47,7.14,7.14,0,0,0-4.83-1.68,6.47,6.47,0,0,0-4.47,1.66,7,7,0,0,0-2.21,4.49Z"/><path class="cls-1" d="M564.47,501a8.76,8.76,0,0,1,4.36-1v5.22h-1.28a6.11,6.11,0,0,0-4.49,1.51q-1.53,1.5-1.53,5.22v12.84h-5V500.33h5v3.54A7.94,7.94,0,0,1,564.47,501Z"/><path class="cls-1" d="M573.33,505.9a11.13,11.13,0,0,1,10-6,11.5,11.5,0,0,1,4.72,1,9.47,9.47,0,0,1,3.69,2.77V492h5.09v32.76h-5.09V521a9.33,9.33,0,0,1-3.43,2.92,10.59,10.59,0,0,1-5,1.16,10.86,10.86,0,0,1-5.82-1.62,11.3,11.3,0,0,1-4.16-4.52,13.84,13.84,0,0,1-1.53-6.57A13.49,13.49,0,0,1,573.33,505.9Zm17.39,2.22a7.21,7.21,0,0,0-2.72-2.83,7.11,7.11,0,0,0-3.63-1,7.14,7.14,0,0,0-6.35,3.74,8.66,8.66,0,0,0-1,4.36,9,9,0,0,0,1,4.43,7.38,7.38,0,0,0,2.74,2.9,7.18,7.18,0,0,0,7.24,0,7.23,7.23,0,0,0,2.72-2.86,8.87,8.87,0,0,0,1-4.4A8.76,8.76,0,0,0,590.72,508.12Z"/><path class="cls-1" d="M625.67,514.4H607a6.74,6.74,0,0,0,7,6.47,5.92,5.92,0,0,0,5.76-3.41h5.44a11,11,0,0,1-4,5.51,11.75,11.75,0,0,1-7.19,2.15,12.42,12.42,0,0,1-6.26-1.58,11.12,11.12,0,0,1-4.34-4.42,13.5,13.5,0,0,1-1.57-6.62,13.82,13.82,0,0,1,1.53-6.62,10.7,10.7,0,0,1,4.29-4.4,12.79,12.79,0,0,1,6.35-1.55,12.45,12.45,0,0,1,6.15,1.5,10.71,10.71,0,0,1,4.21,4.23,12.77,12.77,0,0,1,1.5,6.26A15.5,15.5,0,0,1,625.67,514.4Zm-5.09-4.07a5.77,5.77,0,0,0-2-4.47,7.14,7.14,0,0,0-4.83-1.68,6.47,6.47,0,0,0-4.47,1.66,6.9,6.9,0,0,0-2.21,4.49Z"/><path class="cls-2" d="M665.86,524.72h-3.1l-17.13-26v26h-3.1V493.78h3.1l17.13,26v-26h3.1Z"/><path class="cls-2" d="M694.67,513.83h-20a9.7,9.7,0,0,0,1.33,4.69,7.78,7.78,0,0,0,3.14,2.94,9.15,9.15,0,0,0,4.25,1,8.55,8.55,0,0,0,5.07-1.46,6.88,6.88,0,0,0,2.72-3.94h3.28a10.21,10.21,0,0,1-3.79,5.77,11.51,11.51,0,0,1-7.28,2.24,12.18,12.18,0,0,1-6.11-1.53,10.67,10.67,0,0,1-4.22-4.33,13.58,13.58,0,0,1-1.53-6.58A13.87,13.87,0,0,1,673,506a10.49,10.49,0,0,1,4.21-4.34,12.45,12.45,0,0,1,6.15-1.51,11.82,11.82,0,0,1,6,1.51,10.35,10.35,0,0,1,4,4.05,11.55,11.55,0,0,1,1.39,5.64C694.76,512.46,694.73,513.27,694.67,513.83Zm-4.14-7.13a7.28,7.28,0,0,0-3.07-2.88,9.51,9.51,0,0,0-4.25-1,8.47,8.47,0,0,0-5.89,2.21,8.88,8.88,0,0,0-2.7,6.24h17A8.51,8.51,0,0,0,690.53,506.7Z"/><path class="cls-2" d="M713.09,524.72,706.85,515l-6,9.74h-3.28l7.79-12.09-7.7-12.08h3.5l6.15,9.6,6-9.6h3.23l-7.7,11.95,7.79,12.22Z"/><path class="cls-2" d="M741.72,500.55v24.17h-3.1v-4.25a7.39,7.39,0,0,1-3.27,3.45,10.25,10.25,0,0,1-5,1.2,9.74,9.74,0,0,1-7.08-2.68q-2.74-2.69-2.74-7.77V500.55h3v13.76a8.43,8.43,0,0,0,2,6,7,7,0,0,0,5.38,2.09,7.25,7.25,0,0,0,5.57-2.22q2.09-2.21,2.08-6.5V500.55Z"/><path class="cls-2" d="M750.33,523.15a7.07,7.07,0,0,1-2.94-5.25h3.19a4.56,4.56,0,0,0,1.92,3.3,7.56,7.56,0,0,0,4.58,1.26,6,6,0,0,0,4-1.2,3.69,3.69,0,0,0,1.44-3,2.76,2.76,0,0,0-.79-2,5.7,5.7,0,0,0-2-1.26,33,33,0,0,0-3.29-1,33.24,33.24,0,0,1-4.39-1.41,7.41,7.41,0,0,1-2.85-2.1,5.64,5.64,0,0,1-1.18-3.74,5.57,5.57,0,0,1,1.07-3.28,7.28,7.28,0,0,1,3-2.39,10.54,10.54,0,0,1,4.42-.89,9.58,9.58,0,0,1,6.29,2,7.2,7.2,0,0,1,2.57,5.43h-3.1a4.7,4.7,0,0,0-1.66-3.43,6.23,6.23,0,0,0-4.18-1.31,6.11,6.11,0,0,0-3.81,1.11,3.31,3.31,0,0,0-1.46,2.74A3.27,3.27,0,0,0,752,509a6,6,0,0,0,2.15,1.41,36,36,0,0,0,3.45,1.13,32.61,32.61,0,0,1,4.16,1.37,7.2,7.2,0,0,1,2.66,1.95,5.26,5.26,0,0,1,1.15,3.41,6,6,0,0,1-1.06,3.47,7.24,7.24,0,0,1-3,2.42,10.29,10.29,0,0,1-4.38.88A11.26,11.26,0,0,1,750.33,523.15Z"/><path class="cls-3" d="M424.12,458a.42.42,0,0,0-.28-.11s0-.06,0-.09l.1,0Z"/><polygon class="cls-3" points="449.23 501.84 449.21 501.91 449.13 501.67 449.05 501.91 449.03 501.84 449.13 501.53 449.23 501.84"/><polygon class="cls-3" points="438.25 524.72 438.24 524.72 423.92 485.13 423.93 485.12 437.89 523.73 438.25 524.72"/><polygon class="cls-3" points="469.32 499.02 460.02 524.72 460.01 524.72 460.37 523.73 469.32 499.02"/><path class="cls-3" d="M468.18,497.75,459,523.22H439.3l-14.08-38.93a21.65,21.65,0,0,0,4.26-6.3c1.83-4.24,1.64-9.05-.56-14.31a38.85,38.85,0,0,0-3.74-6.74l-.56-.85-.14-.2-.69.32-.34.16a29.76,29.76,0,0,0-6.8,4.25l-3.39-9.36h17.12L449,506.56l.1-.29.1.29,6-17.86c.56.39,1.13.77,1.7,1.14,3.52,2.28,7.27,4.25,10.37,7.06l.24.23.54.53Z"/><path class="cls-4" d="M469.24,496.69l-.05-.05,0,0-.57-.56-.12-.12-.09-.08-.05,0a51.13,51.13,0,0,0-7.74-5.45c-.94-.57-1.9-1.16-2.82-1.76-.56-.36-1.12-.73-1.66-1.11l-1.64-1.14-.64,1.89-3.18,9.45-1.41,4.17,0,.07-.08-.24-.08.24,0-.07L431.8,450.78l-.34-1H411.12l.73,2,3.39,9.36.37,1,.36,1,1.65-1.39a27.79,27.79,0,0,1,6.23-3.93l.1,0,.17.25a37.42,37.42,0,0,1,3.41,6.22c2,4.87,2.23,9.29.57,13.14a20,20,0,0,1-4,5.85l-.64.68.32.87.12.32,14,38.61.36,1H460l.36-1L469.32,499l.27-.76.32-.9ZM459,523.22H439.3l-14.08-38.93a21.65,21.65,0,0,0,4.26-6.3c1.83-4.24,1.64-9.05-.56-14.31a38.85,38.85,0,0,0-3.74-6.74l-.56-.85-.14-.2-.69.32-.34.16a29.76,29.76,0,0,0-6.8,4.25l-3.39-9.36h17.12L449,506.56l.1-.29.1.29,6-17.86c.56.39,1.13.77,1.7,1.14,3.52,2.28,7.27,4.25,10.37,7.06l.24.23.54.53.09.09Z"/><path class="cls-4" d="M466.8,449.76l-3.08,9.16,0,0-.46,1.35,1.33.52A33,33,0,0,1,475,467.64a22.32,22.32,0,0,1,2.26,2.54l1.67,2.21.6-1.65.34-.95,6.52-18,.73-2Zm11.68,19.52a24.22,24.22,0,0,0-2.42-2.72,34.3,34.3,0,0,0-10.94-7.12l2.76-8.18H485Z"/><path class="cls-3" d="M485,451.26l-6.52,18a24.22,24.22,0,0,0-2.42-2.72,34.3,34.3,0,0,0-10.94-7.12l2.76-8.18Z"/><path class="cls-4" d="M479,497.51c-.13.34-.28.68-.43,1a23.86,23.86,0,0,1-3.35,4.71c-.1-3.69-2.1-7.1-4.73-9.76l-.55-.53-.24-.22c-3.1-2.81-6.85-4.79-10.36-7.06-.92-.6-1.83-1.21-2.71-1.88-.19-.15-.39-.29-.58-.45a19.89,19.89,0,0,1-5.59-6.36c-1.94-3.72-3-11.43,3.07-15.37a42.8,42.8,0,0,0,6.78,11.3A71.67,71.67,0,0,0,473,484.34l1,.72-1-.79A63.78,63.78,0,0,1,460.94,471a51.41,51.41,0,0,1-7.16-15.29l3.13-.52s-.29,4,1.49,6.82a17.76,17.76,0,0,1,4.51,1l.65.23a28.21,28.21,0,0,1,9.76,6.23,20.71,20.71,0,0,1,3.5,4.44c.16.26.31.52.46.78C481.29,481.93,481.86,491.39,479,497.51Z"/><path class="cls-4" d="M429.22,477.82a22,22,0,0,1-5.3,7.31c-.23.23-.46.43-.69.64a39.49,39.49,0,0,1-10.11,6.3,33,33,0,0,1-3.09,1.19s-6.55-18.16,4.9-30.42c.22-.23.44-.47.68-.69a28.57,28.57,0,0,1,8.41-5.7c0,.5-.11,1-.18,1.48-.21,1.55-.49,3.08-.83,4.59a75.14,75.14,0,0,1-3.82,12.1,86.47,86.47,0,0,1-5.85,12,29.61,29.61,0,0,0,6.54-10.06,65.87,65.87,0,0,0,3.92-14.17c.25-1.45.45-2.78.63-4l.27-1.86a41.43,41.43,0,0,1,3.95,7.07C430.35,467.66,431.4,472.79,429.22,477.82Z"/></svg>